<mxfile host="app.diagrams.net" modified="2024-04-18T04:15:07.483Z" agent="Mozilla/5.0 (Windows NT 10.0; Win64; x64) AppleWebKit/537.36 (KHTML, like Gecko) Chrome/123.0.0.0 Safari/537.36" etag="B-cH5kExv_kTWeq1nbsp" version="24.2.5" type="github">
  <diagram name="第 1 页" id="BCKMfQlJzn4PIQiLTIYb">
    <mxGraphModel dx="2100" dy="1148" grid="1" gridSize="10" guides="1" tooltips="1" connect="1" arrows="1" fold="1" page="1" pageScale="1" pageWidth="827" pageHeight="1169" math="0" shadow="0">
      <root>
        <mxCell id="0" />
        <mxCell id="1" parent="0" />
        <mxCell id="slsSjF4ftb8z7jjaeHYQ-44" style="edgeStyle=none;rounded=0;orthogonalLoop=1;jettySize=auto;html=1;entryX=0.5;entryY=0;entryDx=0;entryDy=0;" edge="1" parent="1" source="slsSjF4ftb8z7jjaeHYQ-3" target="slsSjF4ftb8z7jjaeHYQ-5">
          <mxGeometry relative="1" as="geometry" />
        </mxCell>
        <mxCell id="slsSjF4ftb8z7jjaeHYQ-3" value="&lt;p class=&quot;MsoNormal&quot;&gt;&lt;b&gt;&lt;span style=&quot;font-family:宋体;mso-ascii-font-family:Calibri;&lt;br/&gt;mso-ascii-theme-font:minor-latin;mso-fareast-theme-font:minor-fareast;&lt;br/&gt;mso-hansi-font-family:Calibri;mso-hansi-theme-font:minor-latin&quot;&gt;民俗活动特征&lt;/span&gt;&lt;span lang=&quot;EN-US&quot;&gt;&lt;/span&gt;&lt;/b&gt;&lt;/p&gt;" style="rounded=0;whiteSpace=wrap;html=1;" vertex="1" parent="1">
          <mxGeometry x="240" y="110" width="120" height="60" as="geometry" />
        </mxCell>
        <mxCell id="slsSjF4ftb8z7jjaeHYQ-5" value="&lt;p class=&quot;MsoNormal&quot;&gt;&lt;b&gt;&lt;span style=&quot;font-family:宋体;mso-ascii-font-family:Calibri;&lt;br/&gt;mso-ascii-theme-font:minor-latin;mso-fareast-theme-font:minor-fareast;&lt;br/&gt;mso-hansi-font-family:Calibri;mso-hansi-theme-font:minor-latin&quot;&gt;需要民俗活动发生的完整场景、关键信息可交互&lt;/span&gt;&lt;span lang=&quot;EN-US&quot;&gt;&lt;/span&gt;&lt;/b&gt;&lt;/p&gt;" style="rounded=0;whiteSpace=wrap;html=1;" vertex="1" parent="1">
          <mxGeometry x="222.5" y="210" width="155" height="50" as="geometry" />
        </mxCell>
        <mxCell id="slsSjF4ftb8z7jjaeHYQ-47" value="" style="edgeStyle=none;rounded=0;orthogonalLoop=1;jettySize=auto;html=1;" edge="1" parent="1" source="slsSjF4ftb8z7jjaeHYQ-14" target="slsSjF4ftb8z7jjaeHYQ-15">
          <mxGeometry relative="1" as="geometry" />
        </mxCell>
        <mxCell id="slsSjF4ftb8z7jjaeHYQ-14" value="&lt;p class=&quot;MsoNormal&quot;&gt;&lt;b&gt;&lt;span style=&quot;font-family:宋体;mso-ascii-font-family:Calibri;&lt;br/&gt;mso-ascii-theme-font:minor-latin;mso-fareast-theme-font:minor-fareast;&lt;br/&gt;mso-hansi-font-family:Calibri;mso-hansi-theme-font:minor-latin&quot;&gt;非遗保护与传播重点&lt;/span&gt;&lt;span lang=&quot;EN-US&quot;&gt;&lt;/span&gt;&lt;/b&gt;&lt;/p&gt;" style="rounded=0;whiteSpace=wrap;html=1;" vertex="1" parent="1">
          <mxGeometry x="414" y="110" width="120" height="60" as="geometry" />
        </mxCell>
        <mxCell id="slsSjF4ftb8z7jjaeHYQ-15" value="&lt;p class=&quot;MsoNormal&quot;&gt;&lt;b&gt;&lt;span style=&quot;font-family:宋体;mso-ascii-font-family:Calibri;&lt;br/&gt;mso-ascii-theme-font:minor-latin;mso-fareast-theme-font:minor-fareast;&lt;br/&gt;mso-hansi-font-family:Calibri;mso-hansi-theme-font:minor-latin&quot;&gt;积累大量统一规则的&lt;/span&gt;&lt;span lang=&quot;EN-US&quot;&gt;VR&lt;/span&gt;&lt;/b&gt;&lt;b&gt;&lt;span style=&quot;font-family:宋体;mso-ascii-font-family:&lt;br/&gt;Calibri;mso-ascii-theme-font:minor-latin;mso-fareast-theme-font:minor-fareast;&lt;br/&gt;mso-hansi-font-family:Calibri;mso-hansi-theme-font:minor-latin&quot;&gt;数据，符合受众真实具身的体验&lt;/span&gt;&lt;br/&gt;&lt;span lang=&quot;EN-US&quot;&gt;&lt;/span&gt;&lt;/b&gt;&lt;/p&gt;" style="rounded=0;whiteSpace=wrap;html=1;" vertex="1" parent="1">
          <mxGeometry x="396.5" y="210" width="155" height="50" as="geometry" />
        </mxCell>
        <mxCell id="slsSjF4ftb8z7jjaeHYQ-46" style="edgeStyle=none;rounded=0;orthogonalLoop=1;jettySize=auto;html=1;entryX=0.5;entryY=0;entryDx=0;entryDy=0;" edge="1" parent="1" source="slsSjF4ftb8z7jjaeHYQ-17" target="slsSjF4ftb8z7jjaeHYQ-18">
          <mxGeometry relative="1" as="geometry" />
        </mxCell>
        <mxCell id="slsSjF4ftb8z7jjaeHYQ-17" value="&lt;p class=&quot;MsoNormal&quot;&gt;&lt;b&gt;&lt;span lang=&quot;EN-US&quot;&gt;VR&lt;/span&gt;&lt;/b&gt;&lt;b&gt;&lt;span style=&quot;font-family:&lt;br/&gt;宋体;mso-ascii-font-family:Calibri;mso-ascii-theme-font:minor-latin;mso-fareast-theme-font:&lt;br/&gt;minor-fareast;mso-hansi-font-family:Calibri;mso-hansi-theme-font:minor-latin&quot;&gt;项目开发难点&lt;/span&gt;&lt;span lang=&quot;EN-US&quot;&gt;&lt;/span&gt;&lt;/b&gt;&lt;/p&gt;" style="rounded=0;whiteSpace=wrap;html=1;" vertex="1" parent="1">
          <mxGeometry x="590" y="110" width="120" height="60" as="geometry" />
        </mxCell>
        <mxCell id="slsSjF4ftb8z7jjaeHYQ-18" value="&lt;p class=&quot;MsoNormal&quot;&gt;&lt;b&gt;&lt;span style=&quot;font-family:宋体;mso-ascii-font-family:Calibri;&lt;br/&gt;mso-ascii-theme-font:minor-latin;mso-fareast-theme-font:minor-fareast;&lt;br/&gt;mso-hansi-font-family:Calibri;mso-hansi-theme-font:minor-latin&quot;&gt;用户使用其开发&lt;/span&gt;&lt;span lang=&quot;EN-US&quot;&gt;VR&lt;/span&gt;&lt;/b&gt;&lt;b&gt;&lt;span style=&quot;font-family:宋体;mso-ascii-font-family:&lt;br/&gt;Calibri;mso-ascii-theme-font:minor-latin;mso-fareast-theme-font:minor-fareast;&lt;br/&gt;mso-hansi-font-family:Calibri;mso-hansi-theme-font:minor-latin&quot;&gt;场景和交互的原始素材易得，开发过程简便。&lt;/span&gt;&lt;span lang=&quot;EN-US&quot;&gt;&lt;/span&gt;&lt;/b&gt;&lt;/p&gt;" style="rounded=0;whiteSpace=wrap;html=1;" vertex="1" parent="1">
          <mxGeometry x="572.5" y="210" width="155" height="50" as="geometry" />
        </mxCell>
        <mxCell id="slsSjF4ftb8z7jjaeHYQ-53" style="edgeStyle=none;rounded=0;orthogonalLoop=1;jettySize=auto;html=1;entryX=0.5;entryY=0;entryDx=0;entryDy=0;shape=flexArrow;fillColor=#CCCCCC;" edge="1" parent="1" source="slsSjF4ftb8z7jjaeHYQ-50" target="slsSjF4ftb8z7jjaeHYQ-51">
          <mxGeometry relative="1" as="geometry" />
        </mxCell>
        <mxCell id="slsSjF4ftb8z7jjaeHYQ-50" value="" style="rounded=0;whiteSpace=wrap;html=1;fillColor=none;dashed=1;strokeWidth=2;" vertex="1" parent="1">
          <mxGeometry x="148" y="80" width="632" height="240" as="geometry" />
        </mxCell>
        <mxCell id="slsSjF4ftb8z7jjaeHYQ-59" style="edgeStyle=none;rounded=0;orthogonalLoop=1;jettySize=auto;html=1;entryX=0.5;entryY=0;entryDx=0;entryDy=0;shape=flexArrow;fillColor=#CCCCCC;" edge="1" parent="1" source="slsSjF4ftb8z7jjaeHYQ-51" target="slsSjF4ftb8z7jjaeHYQ-56">
          <mxGeometry relative="1" as="geometry" />
        </mxCell>
        <mxCell id="slsSjF4ftb8z7jjaeHYQ-58" value="" style="group" vertex="1" connectable="0" parent="1">
          <mxGeometry x="150" y="710" width="630" height="310" as="geometry" />
        </mxCell>
        <mxCell id="slsSjF4ftb8z7jjaeHYQ-40" style="edgeStyle=none;rounded=0;orthogonalLoop=1;jettySize=auto;html=1;" edge="1" parent="slsSjF4ftb8z7jjaeHYQ-58" source="slsSjF4ftb8z7jjaeHYQ-35" target="slsSjF4ftb8z7jjaeHYQ-36">
          <mxGeometry relative="1" as="geometry" />
        </mxCell>
        <mxCell id="slsSjF4ftb8z7jjaeHYQ-41" style="edgeStyle=none;rounded=0;orthogonalLoop=1;jettySize=auto;html=1;" edge="1" parent="slsSjF4ftb8z7jjaeHYQ-58" source="slsSjF4ftb8z7jjaeHYQ-35" target="slsSjF4ftb8z7jjaeHYQ-37">
          <mxGeometry relative="1" as="geometry" />
        </mxCell>
        <mxCell id="slsSjF4ftb8z7jjaeHYQ-35" value="&lt;p class=&quot;MsoNormal&quot;&gt;&lt;span style=&quot;font-family:宋体;mso-ascii-font-family:Calibri;&lt;br/&gt;mso-ascii-theme-font:minor-latin;mso-fareast-theme-font:minor-fareast;&lt;br/&gt;mso-hansi-font-family:Calibri;mso-hansi-theme-font:minor-latin&quot;&gt;开发&lt;b&gt;民俗交互&lt;/b&gt;&lt;/span&gt;&lt;b&gt;&lt;span lang=&quot;EN-US&quot;&gt;VR&lt;/span&gt;&lt;/b&gt;&lt;b&gt;&lt;span style=&quot;font-family:宋体;mso-ascii-font-family:&lt;br/&gt;Calibri;mso-ascii-theme-font:minor-latin;mso-fareast-theme-font:minor-fareast;&lt;br/&gt;mso-hansi-font-family:Calibri;mso-hansi-theme-font:minor-latin&quot;&gt;项目&lt;/span&gt;&lt;/b&gt;&lt;span lang=&quot;EN-US&quot;&gt;&lt;/span&gt;&lt;/p&gt;" style="whiteSpace=wrap;html=1;" vertex="1" parent="slsSjF4ftb8z7jjaeHYQ-58">
          <mxGeometry x="220.5" y="10" width="210" height="60" as="geometry" />
        </mxCell>
        <mxCell id="slsSjF4ftb8z7jjaeHYQ-42" style="edgeStyle=none;rounded=0;orthogonalLoop=1;jettySize=auto;html=1;entryX=0.5;entryY=0;entryDx=0;entryDy=0;" edge="1" parent="slsSjF4ftb8z7jjaeHYQ-58" source="slsSjF4ftb8z7jjaeHYQ-36" target="slsSjF4ftb8z7jjaeHYQ-38">
          <mxGeometry relative="1" as="geometry" />
        </mxCell>
        <mxCell id="slsSjF4ftb8z7jjaeHYQ-36" value="&lt;p class=&quot;MsoNormal&quot;&gt;&lt;span style=&quot;font-family:宋体;mso-ascii-font-family:Calibri;&lt;br/&gt;mso-ascii-theme-font:minor-latin;mso-fareast-theme-font:minor-fareast;&lt;br/&gt;mso-hansi-font-family:Calibri;mso-hansi-theme-font:minor-latin&quot;&gt;多个项目构成&lt;b&gt;民俗&lt;/b&gt;&lt;/span&gt;&lt;b&gt;&lt;span lang=&quot;EN-US&quot;&gt;VR&lt;/span&gt;&lt;/b&gt;&lt;b&gt;&lt;span style=&quot;font-family:宋体;mso-ascii-font-family:&lt;br/&gt;Calibri;mso-ascii-theme-font:minor-latin;mso-fareast-theme-font:minor-fareast;&lt;br/&gt;mso-hansi-font-family:Calibri;mso-hansi-theme-font:minor-latin&quot;&gt;数据库&lt;/span&gt;&lt;/b&gt;&lt;span lang=&quot;EN-US&quot;&gt;&lt;/span&gt;&lt;/p&gt;" style="whiteSpace=wrap;html=1;" vertex="1" parent="slsSjF4ftb8z7jjaeHYQ-58">
          <mxGeometry x="29" y="130" width="210" height="50" as="geometry" />
        </mxCell>
        <mxCell id="slsSjF4ftb8z7jjaeHYQ-43" style="edgeStyle=none;rounded=0;orthogonalLoop=1;jettySize=auto;html=1;entryX=0.5;entryY=0;entryDx=0;entryDy=0;" edge="1" parent="slsSjF4ftb8z7jjaeHYQ-58" source="slsSjF4ftb8z7jjaeHYQ-37" target="slsSjF4ftb8z7jjaeHYQ-39">
          <mxGeometry relative="1" as="geometry" />
        </mxCell>
        <mxCell id="slsSjF4ftb8z7jjaeHYQ-37" value="&lt;p class=&quot;MsoNormal&quot;&gt;&lt;b&gt;&lt;span style=&quot;font-family:宋体;mso-ascii-font-family:Calibri;&lt;br/&gt;mso-ascii-theme-font:minor-latin;mso-fareast-theme-font:minor-fareast;&lt;br/&gt;mso-hansi-font-family:Calibri;mso-hansi-theme-font:minor-latin&quot;&gt;上传国内外&lt;/span&gt;&lt;/b&gt;&lt;b&gt;&lt;span style=&quot;font-family: &amp;quot;Times New Roman&amp;quot;, serif;&quot; lang=&quot;EN-US&quot;&gt;VR&lt;/span&gt;&lt;/b&gt;&lt;b&gt;&lt;span style=&quot;font-family: 宋体;&quot;&gt;程序、游戏平台&lt;/span&gt;&lt;/b&gt;&lt;span lang=&quot;EN-US&quot;&gt;&lt;/span&gt;&lt;/p&gt;" style="whiteSpace=wrap;html=1;" vertex="1" parent="slsSjF4ftb8z7jjaeHYQ-58">
          <mxGeometry x="389" y="130" width="210" height="50" as="geometry" />
        </mxCell>
        <mxCell id="slsSjF4ftb8z7jjaeHYQ-38" value="&lt;p class=&quot;MsoNormal&quot;&gt;&lt;span style=&quot;font-family:宋体;mso-ascii-font-family:Calibri;&lt;br/&gt;mso-ascii-theme-font:minor-latin;mso-fareast-theme-font:minor-fareast;&lt;br/&gt;mso-hansi-font-family:Calibri;mso-hansi-theme-font:minor-latin&quot;&gt;实现民俗类非遗的&lt;b&gt;系统化保护&lt;/b&gt;&lt;/span&gt;&lt;span lang=&quot;EN-US&quot;&gt;&lt;/span&gt;&lt;/p&gt;" style="whiteSpace=wrap;html=1;" vertex="1" parent="slsSjF4ftb8z7jjaeHYQ-58">
          <mxGeometry x="29" y="230" width="210" height="50" as="geometry" />
        </mxCell>
        <mxCell id="slsSjF4ftb8z7jjaeHYQ-39" value="&lt;p class=&quot;MsoNormal&quot;&gt;&lt;span style=&quot;font-family: 宋体;&quot;&gt;实现我国民俗类非遗的&lt;b&gt;国内外广泛传播&lt;/b&gt;&lt;/span&gt;&lt;span lang=&quot;EN-US&quot;&gt;&lt;/span&gt;&lt;/p&gt;" style="whiteSpace=wrap;html=1;" vertex="1" parent="slsSjF4ftb8z7jjaeHYQ-58">
          <mxGeometry x="389" y="230" width="210" height="50" as="geometry" />
        </mxCell>
        <mxCell id="slsSjF4ftb8z7jjaeHYQ-56" value="" style="rounded=0;whiteSpace=wrap;html=1;fillColor=none;dashed=1;strokeWidth=2;" vertex="1" parent="slsSjF4ftb8z7jjaeHYQ-58">
          <mxGeometry width="630" height="310" as="geometry" />
        </mxCell>
        <mxCell id="slsSjF4ftb8z7jjaeHYQ-104" style="edgeStyle=none;rounded=0;orthogonalLoop=1;jettySize=auto;html=1;exitX=0;exitY=0.25;exitDx=0;exitDy=0;entryX=0;entryY=0.226;entryDx=0;entryDy=0;entryPerimeter=0;" edge="1" parent="slsSjF4ftb8z7jjaeHYQ-58" source="slsSjF4ftb8z7jjaeHYQ-56" target="slsSjF4ftb8z7jjaeHYQ-56">
          <mxGeometry relative="1" as="geometry" />
        </mxCell>
        <mxCell id="slsSjF4ftb8z7jjaeHYQ-64" value="" style="group" vertex="1" connectable="0" parent="1">
          <mxGeometry x="190" y="400" width="200" height="240" as="geometry" />
        </mxCell>
        <mxCell id="slsSjF4ftb8z7jjaeHYQ-28" style="rounded=0;orthogonalLoop=1;jettySize=auto;html=1;" edge="1" parent="slsSjF4ftb8z7jjaeHYQ-64" source="slsSjF4ftb8z7jjaeHYQ-19" target="slsSjF4ftb8z7jjaeHYQ-24">
          <mxGeometry relative="1" as="geometry" />
        </mxCell>
        <mxCell id="slsSjF4ftb8z7jjaeHYQ-19" value="&lt;span style=&quot;background-color: initial;&quot; lang=&quot;EN-US&quot;&gt;VR&lt;/span&gt;&lt;span style=&quot;background-color: initial; font-family: 宋体;&quot;&gt;视频&lt;/span&gt;&lt;p class=&quot;MsoNormal&quot;&gt;&lt;span lang=&quot;EN-US&quot;&gt;&lt;/span&gt;&lt;/p&gt;" style="strokeWidth=2;html=1;shape=mxgraph.flowchart.database;whiteSpace=wrap;verticalAlign=bottom;" vertex="1" parent="slsSjF4ftb8z7jjaeHYQ-64">
          <mxGeometry width="90" height="90" as="geometry" />
        </mxCell>
        <mxCell id="slsSjF4ftb8z7jjaeHYQ-29" style="rounded=0;orthogonalLoop=1;jettySize=auto;html=1;entryX=0.5;entryY=0;entryDx=0;entryDy=0;" edge="1" parent="slsSjF4ftb8z7jjaeHYQ-64" source="slsSjF4ftb8z7jjaeHYQ-20" target="slsSjF4ftb8z7jjaeHYQ-24">
          <mxGeometry relative="1" as="geometry" />
        </mxCell>
        <mxCell id="slsSjF4ftb8z7jjaeHYQ-20" value="&lt;span style=&quot;background-color: initial;&quot; lang=&quot;EN-US&quot;&gt;VR&lt;font face=&quot;宋体&quot;&gt;照片&lt;/font&gt;&lt;/span&gt;&lt;p class=&quot;MsoNormal&quot;&gt;&lt;span lang=&quot;EN-US&quot;&gt;&lt;/span&gt;&lt;/p&gt;" style="strokeWidth=2;html=1;shape=mxgraph.flowchart.database;whiteSpace=wrap;verticalAlign=bottom;" vertex="1" parent="slsSjF4ftb8z7jjaeHYQ-64">
          <mxGeometry x="110" width="90" height="90" as="geometry" />
        </mxCell>
        <mxCell id="slsSjF4ftb8z7jjaeHYQ-24" value="&lt;p class=&quot;MsoNormal&quot;&gt;&lt;span style=&quot;font-size:10.5pt;mso-bidi-font-size:12.0pt;&lt;br/&gt;font-family:宋体;mso-ascii-font-family:Calibri;mso-ascii-theme-font:minor-latin;&lt;br/&gt;mso-fareast-theme-font:minor-fareast;mso-hansi-font-family:Calibri;mso-hansi-theme-font:&lt;br/&gt;minor-latin;mso-bidi-font-family:&amp;quot;Times New Roman&amp;quot;;mso-bidi-theme-font:minor-bidi;&lt;br/&gt;mso-font-kerning:1.0pt;mso-ansi-language:EN-US;mso-fareast-language:ZH-CN;&lt;br/&gt;mso-bidi-language:AR-SA&quot;&gt;导入数据，建立&lt;/span&gt;&lt;b&gt;&lt;span style=&quot;font-size:&lt;br/&gt;10.5pt;mso-bidi-font-size:12.0pt;font-family:&amp;quot;Calibri&amp;quot;,sans-serif;mso-ascii-theme-font:&lt;br/&gt;minor-latin;mso-fareast-font-family:宋体;mso-fareast-theme-font:minor-fareast;&lt;br/&gt;mso-hansi-theme-font:minor-latin;mso-bidi-font-family:&amp;quot;Times New Roman&amp;quot;;&lt;br/&gt;mso-bidi-theme-font:minor-bidi;mso-font-kerning:1.0pt;mso-ansi-language:EN-US;&lt;br/&gt;mso-fareast-language:ZH-CN;mso-bidi-language:AR-SA&quot; lang=&quot;EN-US&quot;&gt;VR&lt;/span&gt;&lt;span style=&quot;font-size:10.5pt;mso-bidi-font-size:12.0pt;font-family:宋体;mso-ascii-font-family:&lt;br/&gt;Calibri;mso-ascii-theme-font:minor-latin;mso-fareast-theme-font:minor-fareast;&lt;br/&gt;mso-hansi-font-family:Calibri;mso-hansi-theme-font:minor-latin;mso-bidi-font-family:&lt;br/&gt;&amp;quot;Times New Roman&amp;quot;;mso-bidi-theme-font:minor-bidi;mso-font-kerning:1.0pt;&lt;br/&gt;mso-ansi-language:EN-US;mso-fareast-language:ZH-CN;mso-bidi-language:AR-SA&quot;&gt;全景场景&lt;/span&gt;&lt;/b&gt;&lt;br&gt;&lt;/p&gt;" style="rounded=0;whiteSpace=wrap;html=1;" vertex="1" parent="slsSjF4ftb8z7jjaeHYQ-64">
          <mxGeometry x="47" y="140" width="113" height="100" as="geometry" />
        </mxCell>
        <mxCell id="slsSjF4ftb8z7jjaeHYQ-68" value="&lt;p class=&quot;MsoNormal&quot;&gt;&lt;b&gt;&lt;span style=&quot;font-size:12.0pt;mso-bidi-font-size:16.0pt;&lt;br/&gt;font-family:宋体;mso-ascii-font-family:Calibri;mso-ascii-theme-font:minor-latin;&lt;br/&gt;mso-fareast-theme-font:minor-fareast;mso-hansi-font-family:Calibri;mso-hansi-theme-font:&lt;br/&gt;minor-latin&quot;&gt;软件从需求分析&lt;/span&gt;&lt;/b&gt;&lt;/p&gt;" style="text;html=1;align=center;verticalAlign=middle;resizable=0;points=[];autosize=1;strokeColor=none;fillColor=none;textDirection=vertical-lr;" vertex="1" parent="1">
          <mxGeometry x="55" y="180" width="140" height="60" as="geometry" />
        </mxCell>
        <mxCell id="slsSjF4ftb8z7jjaeHYQ-69" value="&lt;p class=&quot;MsoNormal&quot;&gt;&lt;b&gt;&lt;span style=&quot;font-size:12.0pt;mso-bidi-font-size:16.0pt;&lt;br/&gt;font-family:宋体;mso-ascii-font-family:Calibri;mso-ascii-theme-font:minor-latin;&lt;br/&gt;mso-fareast-theme-font:minor-fareast;mso-hansi-font-family:Calibri;mso-hansi-theme-font:&lt;br/&gt;minor-latin&quot;&gt;软件应用及预期结果&lt;/span&gt;&lt;/b&gt;&lt;b&gt;&lt;span style=&quot;font-size:12.0pt;&lt;br/&gt;mso-bidi-font-size:16.0pt&quot; lang=&quot;EN-US&quot;&gt;&lt;/span&gt;&lt;/b&gt;&lt;/p&gt;" style="text;html=1;align=center;verticalAlign=middle;resizable=0;points=[];autosize=1;strokeColor=none;fillColor=none;textDirection=vertical-lr;" vertex="1" parent="1">
          <mxGeometry x="40" y="870" width="170" height="60" as="geometry" />
        </mxCell>
        <mxCell id="slsSjF4ftb8z7jjaeHYQ-66" value="&lt;p class=&quot;MsoNormal&quot;&gt;&lt;b&gt;&lt;span style=&quot;font-size:12.0pt;mso-bidi-font-size:16.0pt;&lt;br/&gt;font-family:宋体;mso-ascii-font-family:Calibri;mso-ascii-theme-font:minor-latin;&lt;br/&gt;mso-fareast-theme-font:minor-fareast;mso-hansi-font-family:Calibri;mso-hansi-theme-font:&lt;br/&gt;minor-latin&quot;&gt;软件功能&lt;/span&gt;&lt;/b&gt;&lt;b&gt;&lt;span style=&quot;font-size:12.0pt;&lt;br/&gt;mso-bidi-font-size:16.0pt&quot; lang=&quot;EN-US&quot;&gt;&lt;/span&gt;&lt;/b&gt;&lt;/p&gt;" style="text;html=1;align=center;verticalAlign=middle;resizable=0;points=[];autosize=1;strokeColor=none;fillColor=none;textDirection=vertical-lr;" vertex="1" parent="1">
          <mxGeometry x="80" y="490" width="90" height="60" as="geometry" />
        </mxCell>
        <mxCell id="slsSjF4ftb8z7jjaeHYQ-71" value="&lt;font style=&quot;font-size: 16px;&quot;&gt;&lt;b&gt;软件&lt;/b&gt;&lt;/font&gt;" style="whiteSpace=wrap;html=1;" vertex="1" parent="1">
          <mxGeometry x="230" y="1060" width="120" height="60" as="geometry" />
        </mxCell>
        <mxCell id="slsSjF4ftb8z7jjaeHYQ-74" value="&lt;font style=&quot;font-size: 16px;&quot;&gt;&lt;b&gt;总结报告&lt;/b&gt;&lt;/font&gt;" style="whiteSpace=wrap;html=1;" vertex="1" parent="1">
          <mxGeometry x="600" y="1060" width="120" height="60" as="geometry" />
        </mxCell>
        <mxCell id="slsSjF4ftb8z7jjaeHYQ-75" value="&lt;font style=&quot;font-size: 16px;&quot;&gt;&lt;b&gt;论文集&lt;span style=&quot;white-space: pre;&quot;&gt;&#x9;&lt;/span&gt;&lt;/b&gt;&lt;/font&gt;" style="whiteSpace=wrap;html=1;" vertex="1" parent="1">
          <mxGeometry x="414" y="1060" width="120" height="60" as="geometry" />
        </mxCell>
        <mxCell id="slsSjF4ftb8z7jjaeHYQ-87" value="" style="rounded=0;whiteSpace=wrap;html=1;fillColor=none;dashed=1;strokeWidth=3;" vertex="1" parent="1">
          <mxGeometry x="148" y="1040" width="630" height="110" as="geometry" />
        </mxCell>
        <mxCell id="slsSjF4ftb8z7jjaeHYQ-88" value="&lt;p class=&quot;MsoNormal&quot;&gt;&lt;b&gt;&lt;span style=&quot;font-size:12.0pt;mso-bidi-font-size:16.0pt;&lt;br/&gt;font-family:宋体;mso-ascii-font-family:Calibri;mso-ascii-theme-font:minor-latin;&lt;br/&gt;mso-fareast-theme-font:minor-fareast;mso-hansi-font-family:Calibri;mso-hansi-theme-font:&lt;br/&gt;minor-latin&quot;&gt;课题预期成果&lt;/span&gt;&lt;/b&gt;&lt;/p&gt;&lt;p class=&quot;MsoNormal&quot;&gt;&lt;b&gt;&lt;span style=&quot;font-size:12.0pt;mso-bidi-font-size:16.0pt;&lt;br/&gt;font-family:宋体;mso-ascii-font-family:Calibri;mso-ascii-theme-font:minor-latin;&lt;br/&gt;mso-fareast-theme-font:minor-fareast;mso-hansi-font-family:Calibri;mso-hansi-theme-font:&lt;br/&gt;minor-latin&quot;&gt;&lt;br&gt;&lt;/span&gt;&lt;/b&gt;&lt;/p&gt;" style="text;html=1;align=center;verticalAlign=middle;resizable=0;points=[];autosize=1;strokeColor=none;fillColor=none;textDirection=vertical-lr;" vertex="1" parent="1">
          <mxGeometry x="80" y="1090" width="120" height="90" as="geometry" />
        </mxCell>
        <mxCell id="slsSjF4ftb8z7jjaeHYQ-65" value="&lt;p class=&quot;MsoNormal&quot;&gt;&lt;b&gt;&lt;span lang=&quot;EN-US&quot;&gt;VR&lt;/span&gt;&lt;/b&gt;&lt;b&gt;&lt;span style=&quot;font-family:&lt;br/&gt;宋体;mso-ascii-font-family:Calibri;mso-ascii-theme-font:minor-latin;mso-fareast-theme-font:&lt;br/&gt;minor-fareast;mso-hansi-font-family:Calibri;mso-hansi-theme-font:minor-latin&quot;&gt;数据类型与规则&lt;/span&gt;&lt;span lang=&quot;EN-US&quot;&gt;&lt;/span&gt;&lt;/b&gt;&lt;/p&gt;" style="text;html=1;align=center;verticalAlign=middle;resizable=0;points=[];autosize=1;strokeColor=none;fillColor=none;textDirection=vertical-lr;" vertex="1" parent="1">
          <mxGeometry x="110" y="450" width="120" height="50" as="geometry" />
        </mxCell>
        <mxCell id="slsSjF4ftb8z7jjaeHYQ-63" value="" style="group" vertex="1" connectable="0" parent="1">
          <mxGeometry x="390" y="400" width="172" height="280" as="geometry" />
        </mxCell>
        <mxCell id="slsSjF4ftb8z7jjaeHYQ-49" style="edgeStyle=none;rounded=0;orthogonalLoop=1;jettySize=auto;html=1;entryX=0.5;entryY=0;entryDx=0;entryDy=0;" edge="1" parent="slsSjF4ftb8z7jjaeHYQ-63" source="slsSjF4ftb8z7jjaeHYQ-23" target="slsSjF4ftb8z7jjaeHYQ-26">
          <mxGeometry relative="1" as="geometry" />
        </mxCell>
        <mxCell id="slsSjF4ftb8z7jjaeHYQ-23" value="多张2D照片&lt;p class=&quot;MsoNormal&quot;&gt;&lt;span lang=&quot;EN-US&quot;&gt;&lt;/span&gt;&lt;/p&gt;" style="strokeWidth=2;html=1;shape=mxgraph.flowchart.database;whiteSpace=wrap;verticalAlign=bottom;" vertex="1" parent="slsSjF4ftb8z7jjaeHYQ-63">
          <mxGeometry x="11.5" width="90" height="90" as="geometry" />
        </mxCell>
        <mxCell id="slsSjF4ftb8z7jjaeHYQ-26" value="&lt;p class=&quot;MsoNormal&quot;&gt;&lt;span style=&quot;font-family:宋体;mso-ascii-font-family:Calibri;&lt;br/&gt;mso-ascii-theme-font:minor-latin;mso-fareast-theme-font:minor-fareast;&lt;br/&gt;mso-hansi-font-family:Calibri;mso-hansi-theme-font:minor-latin&quot;&gt;导入多张&lt;/span&gt;&lt;span lang=&quot;EN-US&quot;&gt;2D&lt;/span&gt;&lt;span style=&quot;font-family:宋体;mso-ascii-font-family:Calibri;&lt;br/&gt;mso-ascii-theme-font:minor-latin;mso-fareast-theme-font:minor-fareast;&lt;br/&gt;mso-hansi-font-family:Calibri;mso-hansi-theme-font:minor-latin&quot;&gt;照片拼接生成&lt;/span&gt;&lt;b&gt;&lt;span lang=&quot;EN-US&quot;&gt;VR&lt;/span&gt;&lt;/b&gt;&lt;b&gt;&lt;span style=&quot;font-family:宋体;mso-ascii-font-family:&lt;br/&gt;Calibri;mso-ascii-theme-font:minor-latin;mso-fareast-theme-font:minor-fareast;&lt;br/&gt;mso-hansi-font-family:Calibri;mso-hansi-theme-font:minor-latin&quot;&gt;全景场景&lt;/span&gt;&lt;/b&gt;&lt;span lang=&quot;EN-US&quot;&gt;&lt;/span&gt;&lt;/p&gt;" style="rounded=0;whiteSpace=wrap;html=1;" vertex="1" parent="slsSjF4ftb8z7jjaeHYQ-63">
          <mxGeometry y="140" width="113" height="100" as="geometry" />
        </mxCell>
        <mxCell id="slsSjF4ftb8z7jjaeHYQ-62" value="" style="group" vertex="1" connectable="0" parent="1">
          <mxGeometry x="520" y="400" width="113" height="240" as="geometry" />
        </mxCell>
        <mxCell id="slsSjF4ftb8z7jjaeHYQ-48" style="edgeStyle=none;rounded=0;orthogonalLoop=1;jettySize=auto;html=1;entryX=0.5;entryY=0;entryDx=0;entryDy=0;movable=1;resizable=1;rotatable=1;deletable=1;editable=1;locked=0;connectable=1;" edge="1" parent="slsSjF4ftb8z7jjaeHYQ-62" source="slsSjF4ftb8z7jjaeHYQ-22" target="slsSjF4ftb8z7jjaeHYQ-25">
          <mxGeometry relative="1" as="geometry" />
        </mxCell>
        <mxCell id="slsSjF4ftb8z7jjaeHYQ-22" value="&lt;p class=&quot;MsoNormal&quot;&gt;&lt;span style=&quot;font-family:宋体;mso-ascii-font-family:Calibri;&lt;br/&gt;mso-ascii-theme-font:minor-latin;mso-fareast-theme-font:minor-fareast;&lt;br/&gt;mso-hansi-font-family:Calibri;mso-hansi-theme-font:minor-latin&quot;&gt;关键流程的多模态数据&lt;/span&gt;&lt;span lang=&quot;EN-US&quot;&gt;&lt;/span&gt;&lt;/p&gt;&lt;p class=&quot;MsoNormal&quot;&gt;&lt;span lang=&quot;EN-US&quot;&gt;&lt;/span&gt;&lt;/p&gt;" style="strokeWidth=2;html=1;shape=mxgraph.flowchart.database;whiteSpace=wrap;verticalAlign=bottom;movable=1;resizable=1;rotatable=1;deletable=1;editable=1;locked=0;connectable=1;" vertex="1" parent="slsSjF4ftb8z7jjaeHYQ-62">
          <mxGeometry x="11.5" width="90" height="90" as="geometry" />
        </mxCell>
        <mxCell id="slsSjF4ftb8z7jjaeHYQ-25" value="&lt;p class=&quot;MsoNormal&quot;&gt;&lt;span style=&quot;font-family:宋体;mso-ascii-font-family:Calibri;&lt;br/&gt;mso-ascii-theme-font:minor-latin;mso-fareast-theme-font:minor-fareast;&lt;br/&gt;mso-hansi-font-family:Calibri;mso-hansi-theme-font:minor-latin&quot;&gt;将多模态数据逐个导入，实现软件规定的关键流程&lt;/span&gt;&lt;b&gt;&lt;span lang=&quot;EN-US&quot;&gt;VR&lt;/span&gt;&lt;/b&gt;&lt;b&gt;&lt;span style=&quot;font-family:宋体;mso-ascii-font-family:&lt;br/&gt;Calibri;mso-ascii-theme-font:minor-latin;mso-fareast-theme-font:minor-fareast;&lt;br/&gt;mso-hansi-font-family:Calibri;mso-hansi-theme-font:minor-latin&quot;&gt;交互&lt;/span&gt;&lt;/b&gt;&lt;span lang=&quot;EN-US&quot;&gt;&lt;/span&gt;&lt;/p&gt;" style="rounded=0;whiteSpace=wrap;html=1;movable=1;resizable=1;rotatable=1;deletable=1;editable=1;locked=0;connectable=1;" vertex="1" parent="slsSjF4ftb8z7jjaeHYQ-62">
          <mxGeometry y="140" width="113" height="100" as="geometry" />
        </mxCell>
        <mxCell id="slsSjF4ftb8z7jjaeHYQ-103" value="" style="group" vertex="1" connectable="0" parent="1">
          <mxGeometry x="650" y="400" width="113" height="240" as="geometry" />
        </mxCell>
        <mxCell id="slsSjF4ftb8z7jjaeHYQ-33" style="edgeStyle=none;rounded=0;orthogonalLoop=1;jettySize=auto;html=1;entryX=0.5;entryY=0;entryDx=0;entryDy=0;movable=1;resizable=1;rotatable=1;deletable=1;editable=1;locked=0;connectable=1;" edge="1" parent="slsSjF4ftb8z7jjaeHYQ-103" source="slsSjF4ftb8z7jjaeHYQ-21" target="slsSjF4ftb8z7jjaeHYQ-27">
          <mxGeometry relative="1" as="geometry" />
        </mxCell>
        <mxCell id="slsSjF4ftb8z7jjaeHYQ-21" value="&lt;p class=&quot;MsoNormal&quot;&gt;&lt;span style=&quot;font-family:宋体;mso-ascii-font-family:Calibri;&lt;br/&gt;mso-ascii-theme-font:minor-latin;mso-fareast-theme-font:minor-fareast;&lt;br/&gt;mso-hansi-font-family:Calibri;mso-hansi-theme-font:minor-latin&quot;&gt;人物关键&lt;/span&gt;&lt;span style=&quot;font-family: 宋体; background-color: initial;&quot;&gt;动作视频&lt;/span&gt;&lt;/p&gt;&lt;p class=&quot;MsoNormal&quot;&gt;&lt;span lang=&quot;EN-US&quot;&gt;&lt;/span&gt;&lt;/p&gt;&lt;p class=&quot;MsoNormal&quot;&gt;&lt;span lang=&quot;EN-US&quot;&gt;&lt;/span&gt;&lt;/p&gt;" style="strokeWidth=2;html=1;shape=mxgraph.flowchart.database;whiteSpace=wrap;verticalAlign=bottom;movable=1;resizable=1;rotatable=1;deletable=1;editable=1;locked=0;connectable=1;" vertex="1" parent="slsSjF4ftb8z7jjaeHYQ-103">
          <mxGeometry x="11.5" width="90" height="90" as="geometry" />
        </mxCell>
        <mxCell id="slsSjF4ftb8z7jjaeHYQ-27" value="&lt;p class=&quot;MsoNormal&quot;&gt;&lt;span style=&quot;font-family:宋体;mso-ascii-font-family:Calibri;&lt;br/&gt;mso-ascii-theme-font:minor-latin;mso-fareast-theme-font:minor-fareast;&lt;br/&gt;mso-hansi-font-family:Calibri;mso-hansi-theme-font:minor-latin&quot;&gt;提取动作数据，转化为&lt;/span&gt;&lt;span lang=&quot;EN-US&quot;&gt;FAX&lt;/span&gt;&lt;span style=&quot;font-family:宋体;mso-ascii-font-family:Calibri;&lt;br/&gt;mso-ascii-theme-font:minor-latin;mso-fareast-theme-font:minor-fareast;&lt;br/&gt;mso-hansi-font-family:Calibri;mso-hansi-theme-font:minor-latin&quot;&gt;文件，赋值给软件中的虚拟人物，实现与人物的&lt;/span&gt;&lt;b&gt;&lt;span lang=&quot;EN-US&quot;&gt;VR&lt;/span&gt;&lt;/b&gt;&lt;b&gt;&lt;span style=&quot;font-family:宋体;mso-ascii-font-family:&lt;br/&gt;Calibri;mso-ascii-theme-font:minor-latin;mso-fareast-theme-font:minor-fareast;&lt;br/&gt;mso-hansi-font-family:Calibri;mso-hansi-theme-font:minor-latin&quot;&gt;交互&lt;/span&gt;&lt;/b&gt;&lt;span lang=&quot;EN-US&quot;&gt;&lt;/span&gt;&lt;/p&gt;" style="rounded=0;whiteSpace=wrap;html=1;movable=1;resizable=1;rotatable=1;deletable=1;editable=1;locked=0;connectable=1;" vertex="1" parent="slsSjF4ftb8z7jjaeHYQ-103">
          <mxGeometry y="140" width="113" height="100" as="geometry" />
        </mxCell>
        <mxCell id="slsSjF4ftb8z7jjaeHYQ-51" value="" style="rounded=0;whiteSpace=wrap;html=1;fillColor=none;dashed=1;strokeWidth=2;movable=1;resizable=1;rotatable=1;deletable=1;editable=1;locked=0;connectable=1;" vertex="1" parent="1">
          <mxGeometry x="147" y="360" width="632" height="300" as="geometry" />
        </mxCell>
      </root>
    </mxGraphModel>
  </diagram>
</mxfile>
